<?xml version="1.0" encoding="UTF-8"?>
<svg xmlns="http://www.w3.org/2000/svg" viewBox="0 0 254.5466 199.1517">
  <defs>
    <style>
      .cls-1 {
        stroke: #5cbb8b;
      }

      .cls-1, .cls-2, .cls-3, .cls-4, .cls-5, .cls-6 {
        fill: none;
        stroke-miterlimit: 10;
      }

      .cls-1, .cls-4, .cls-6 {
        stroke-width: 2px;
      }

      .cls-7, .cls-8 {
        fill: gray;
      }

      .cls-9 {
        fill: #5cbb8b;
      }

      .cls-10 {
        fill: #e72b19;
      }

      .cls-11 {
        font-family: STIXTwoMath-Regular, 'STIX Two Math';
      }

      .cls-11, .cls-8 {
        font-size: 12px;
      }

      .cls-8, .cls-12, .cls-13 {
        font-family: ArialMT, Arial;
      }

      .cls-12, .cls-13 {
        font-size: 18px;
      }

      .cls-2 {
        stroke: #231815;
      }

      .cls-3 {
        stroke: gray;
      }

      .cls-13 {
        letter-spacing: -.0552em;
      }

      .cls-4 {
        stroke: #19c1e7;
      }

      .cls-14 {
        fill: #19c1e7;
      }

      .cls-5 {
        stroke: #000;
      }

      .cls-6 {
        stroke: #e72b19;
      }
    </style>
  </defs>
  <g id="_图层_1" data-name="图层_1">
    <path class="cls-2" d="M.082,34.4082c17.6121,2.9263,43.6806,9.8593,70.1149,27.5862,32.1061,21.5304,48.3422,47.9792,57.4713,63.2184,15.567,25.9862,22.8169,50.2129,26.4368,66.6667"/>
    <path class="cls-2" d="M13.8352,72.3184c13.6105-11.5543,35.7421-26.976,66.3498-35.7045,37.1749-10.6013,67.8531-5.9108,85.3832-3.0358,29.8929,4.9025,53.0699,15.0175,67.9686,22.8826"/>
    <path class="cls-2" d="M252.0781,27.2703c-14.6942,6.8239-36.6288,19.135-59.6321,40.7089-27.9389,26.2027-43.1745,52.677-51.7671,67.8752-14.6524,25.9164-22.3386,48.2893-26.4864,63.1631"/>
  </g>
  <g id="_图层_2" data-name="图层_2">
    <g>
      <line class="cls-6" x1="216.4681" y1="48.0822" x2="245.5824" y2="61.6212"/>
      <polygon class="cls-10" points="240.6526 64.2294 244.2382 60.9961 244.4002 56.1706 252.0781 64.6418 240.6526 64.2294"/>
    </g>
    <g>
      <line class="cls-1" x1="48.0025" y1="49.034" x2="77.456" y2="36.2496"/>
      <polygon class="cls-9" points="76.1337 41.6678 76.0962 36.8398 72.595 33.5152 84.0274 33.3973 76.1337 41.6678"/>
    </g>
    <g>
      <line class="cls-4" x1="137.2586" y1="142.4842" x2="168.8776" y2="148.0685"/>
      <polygon class="cls-14" points="164.7858 151.8584 167.4178 147.8107 166.3315 143.1063 175.9321 149.3144 164.7858 151.8584"/>
    </g>
    <g>
      <line class="cls-4" x1="216.1251" y1="48.2329" x2="247.538" y2="54.8791"/>
      <polygon class="cls-14" points="243.3209 58.529 246.0877 54.5723 245.1605 49.834 254.5466 56.362 243.3209 58.529"/>
    </g>
  </g>
  <g id="_图层_3" data-name="图层_3">
    <path class="cls-5" d="M69.6568,39.9376c.8801,2.9716,1.5357,5.5965,1.6819,7.3818.1911,2.3342.0716,4.7342-.5009,7.5254-.6264,3.054-1.83,4.9346-2.4863,5.8149"/>
    <path class="cls-5" d="M199.0816,61.7941c-1.83-2.3162-2.9016-5.0019-3.3444-6.7376-.5789-2.2693-1.1459-4.6597-1.0485-7.5074.1066-3.1158,1.2618-5.167,1.7616-6.1447"/>
    <path class="cls-5" d="M125.8996,121.8409c3.2393-1.0636,6.1076-1.8816,8.0752-2.1386,2.5726-.336,5.2354-.3661,8.3566.0318,3.4151.4353,5.5639,1.52,6.575,2.1205"/>
    <path class="cls-5" d="M158.0329,145.8993c-.9255,2.9577-1.8441,5.5026-2.7178,7.0664-1.1423,2.0445-2.5791,3.9706-4.6101,5.9691-2.2222,2.1866-4.2696,3.0772-5.3052,3.4423"/>
    <path class="cls-5" d="M151.0601,144.2024c-2.3246,2.0496-4.4294,3.7497-5.9871,4.634-2.0367,1.1563-4.2638,2.0585-7.0366,2.7148-3.0338.718-5.2463.4182-6.3212.1936"/>
  </g>
  <g id="_图层_4" data-name="图层_4">
    <text class="cls-13" transform="translate(210.0312 41.2157)"><tspan x="0" y="0">A</tspan></text>
    <text class="cls-12" transform="translate(42.193 68.1306)"><tspan x="0" y="0">B</tspan></text>
    <text class="cls-12" transform="translate(118.9448 149.3144)"><tspan x="0" y="0">C</tspan></text>
  </g>
  <g id="_图层_5" data-name="图层_5">
    <g>
      <path class="cls-3" d="M205.5702,32.677c-10.0518-4.6928-22.9808-9.5785-38.4591-12.8197-6.2852-1.3161-22.1164-4.272-42.7324-3.6158-9.1891.2925-22.487.8026-39.1165,5.5881-8.2565,2.3759-15.2899,5.2175-20.9472,7.8708"/>
      <polygon class="cls-7" points="65.2356 25.175 65.4428 29.1931 68.4789 31.8333 58.9654 32.3483 65.2356 25.175"/>
    </g>
    <g>
      <path class="cls-3" d="M48.441,72.668c4.713,1.738,11.168,4.569,18.1568,9.1917,6.8858,4.5546,11.3286,8.8899,16.1805,13.6245,7.4366,7.2567,12.6111,13.7838,15.491,17.6316,2.9568,3.9505,7.6593,10.2941,12.3354,19.5154.7298,1.4391,1.3873,2.8071,1.9764,4.085"/>
      <polygon class="cls-7" points="108.011 135.6619 112.034 135.6049 114.7858 132.6696 114.9451 142.1957 108.011 135.6619"/>
    </g>
    <g>
      <path class="cls-3" d="M158.0329,135.9131c2.0839-4.8478,4.9915-10.9264,8.9751-17.6643,4.4042-7.4492,8.3484-12.7016,10.7206-15.8407,5.9733-7.9042,11.1311-13.4161,14.5536-17.0526,5.3748-5.7106,9.8165-9.8535,14.4135-14.1413,2.2851-2.1313,4.4061-4.062,6.3105-5.7675"/>
      <polygon class="cls-7" points="213.4381 70.1239 212.1282 66.3196 208.4806 64.6216 217.481 61.4967 213.4381 70.1239"/>
    </g>
  </g>
  <g id="_图层_6" data-name="图层_6">
    <text class="cls-8" transform="translate(129.7461 10.2979)"><tspan x="0" y="0">(1)</tspan></text>
    <text class="cls-8" transform="translate(63.3869 113.1438)"><tspan x="0" y="0">(2)</tspan></text>
    <text class="cls-8" transform="translate(189.4112 107.4407)"><tspan x="0" y="0">(3)</tspan></text>
  </g>
  <g id="_图层_7" data-name="图层_7">
    <text class="cls-11" transform="translate(183.1353 55.2429)"><tspan x="0" y="0">α</tspan></text>
    <text class="cls-11" transform="translate(78.7687 55.2428)"><tspan x="0" y="0">β</tspan></text>
    <text class="cls-11" transform="translate(133.4359 113.1437)"><tspan x="0" y="0">γ</tspan></text>
    <text class="cls-11" transform="translate(154.1047 167.7622)"><tspan x="0" y="0">β</tspan></text>
    <text class="cls-11" transform="translate(107.5227 157.8392)"><tspan x="0" y="0">β+γ</tspan></text>
    <path class="cls-5" d="M228.1796,50.4312c-2.648,1.6103-5.0182,2.915-6.7069,3.5126-2.2078.7813-4.5587,1.2791-7.4035,1.439-3.1127.1749-5.2384-.5081-6.2572-.9177"/>
    <text class="cls-11" transform="translate(217.4807 66.1937)"><tspan x="0" y="0">β+γ</tspan></text>
  </g>
</svg>