<?xml version="1.0" encoding="UTF-8"?>
<svg id="_图层_1" data-name="图层_1" xmlns="http://www.w3.org/2000/svg" viewBox="0 0 125.3745 109.4189">
  <defs>
    <style>
      .cls-1 {
        letter-spacing: -.0552em;
      }

      .cls-1, .cls-2 {
        fill: #231815;
        font-family: ArialMT, Arial;
        font-size: 18px;
      }

      .cls-3 {
        fill: #fff;
        stroke: #231815;
        stroke-miterlimit: 10;
      }
    </style>
  </defs>
  <path class="cls-3" d="M55.316,21.1433c-5.5673,2.6718-12.3232,6.5158-18.5309,11.8019-3.6337,3.0942-9.699,8.913-13.5592,16.8982-2.0703,4.2825-2.7622,7.6491-3.6158,11.8019-1.0787,5.2481-1.2107,9.174-1.3559,14.2159-.1153,4.0023-.0804,9.194.452,15.2888"/>
  <path class="cls-3" d="M55.316,21.1433c9.6573,2.879,16.2592,6.1771,20.3948,8.5793,6.4368,3.739,11.4742,7.045,18.6645,13.8466,4.496,4.253,5.8405,7.0151,8.5285,11.0871,2.7074,4.1013,3.8675,7.4354,4.9854,10.7242,1.1312,3.328,2.3005,7.788,2.7193,13.1371"/>
  <path class="cls-3" d="M18.7061,91.15c10.3329.6802,19.0895.6332,25.6786.401,4.4911-.1583,10.6346-.3898,18.5832-1.4036,6.402-.8166,11.187-1.7851,15.2044-2.6067,1.9656-.402,8.4111-1.7455,16.5559-4.0103,4.5671-1.2699,9.9689-2.913,15.8802-5.0128"/>
  <path class="cls-3" d="M55.316,21.1433c-1.1451,5.6843-1.5561,10.5706-1.6975,14.1842-.0824,2.1045-.2126,5.749.2122,10.4374.1348,1.4883.6129,7.2635,2.2781,14.7779,1.0657,4.8092,2.0201,9.3476,4.3444,16.7641,1.2873,4.1076,2.783,8.2797,5.2602,12.6163"/>
  <text class="cls-2" transform="translate(0 102.0057)"><tspan x="0" y="0">C</tspan></text>
  <text class="cls-2" transform="translate(50.2791 15.4467)"><tspan x="0" y="0">B</tspan></text>
  <text class="cls-1" transform="translate(113.3347 76.526)"><tspan x="0" y="0">A</tspan></text>
  <text class="cls-2" transform="translate(62.1902 103.5741)"><tspan x="0" y="0">H</tspan></text>
</svg>