<?xml version="1.0" encoding="UTF-8"?>
<svg xmlns="http://www.w3.org/2000/svg" viewBox="0 0 300.2482 229.1704">
  <defs>
    <style>
      .cls-1 {
        stroke-dasharray: 5.9183 5.9183;
      }

      .cls-1, .cls-2, .cls-3, .cls-4, .cls-5, .cls-6, .cls-7, .cls-8, .cls-9 {
        stroke: #231815;
        stroke-miterlimit: 10;
      }

      .cls-1, .cls-2, .cls-3, .cls-4, .cls-5, .cls-7, .cls-8, .cls-9 {
        fill: none;
      }

      .cls-2 {
        stroke-dasharray: 1.5854 1.5854;
      }

      .cls-3 {
        stroke-dasharray: 6;
      }

      .cls-4 {
        stroke-dasharray: 3;
      }

      .cls-6, .cls-10 {
        fill: #fff;
      }

      .cls-7 {
        stroke-dasharray: 5.5967 5.5967;
      }

      .cls-11, .cls-12 {
        fill: #231815;
        font-family: ArialMT, Arial;
        font-size: 18px;
      }

      .cls-12 {
        letter-spacing: -.0552em;
      }

      .cls-8 {
        stroke-dasharray: 5.8881 5.8881;
      }

      .cls-13 {
        letter-spacing: -.0742em;
      }

      .cls-9 {
        stroke-dasharray: 2.216 2.216;
      }

      .cls-14 {
        letter-spacing: -.0371em;
      }
    </style>
  </defs>
  <g id="_图层_1" data-name="图层_1">
    <line class="cls-6" x1="203.539" y1="40.1521" x2="203.539" y2="189.4866"/>
    <line class="cls-6" x1="17.6234" y1="130.5132" x2="254.0819" y2="15.4464"/>
    <line class="cls-6" x1="277.6822" y1="212.3918" x2="17.6234" y2="130.7497"/>
    <g>
      <line class="cls-10" x1="246.8028" y1="137.5909" x2="203.539" y2="40.1521"/>
      <g>
        <line class="cls-5" x1="246.8028" y1="137.5909" x2="245.5854" y2="134.849"/>
        <line class="cls-1" x1="243.1837" y1="129.4399" x2="205.9573" y2="45.5986"/>
        <line class="cls-5" x1="204.7565" y1="42.894" x2="203.539" y2="40.1521"/>
      </g>
    </g>
    <g>
      <line class="cls-10" x1="17.6234" y1="130.7497" x2="300.2331" y2="139.2812"/>
      <g>
        <line class="cls-5" x1="17.6234" y1="130.7497" x2="20.622" y2="130.8402"/>
        <line class="cls-8" x1="26.5074" y1="131.0179" x2="294.2918" y2="139.1019"/>
        <line class="cls-5" x1="297.2345" y1="139.1907" x2="300.2332" y2="139.2812"/>
      </g>
    </g>
    <g>
      <line class="cls-10" x1="203.539" y1="189.4866" x2="246.8028" y2="137.5909"/>
      <g>
        <line class="cls-5" x1="203.539" y1="189.4866" x2="205.4601" y2="187.1823"/>
        <line class="cls-7" x1="209.0439" y1="182.8835" x2="243.0899" y2="142.0446"/>
        <line class="cls-5" x1="244.8818" y1="139.8952" x2="246.8028" y2="137.5909"/>
      </g>
    </g>
  </g>
  <g id="_图层_2" data-name="图层_2">
    <path class="cls-5" d="M248.1636,18.3264c5.5445,18.0926,9.2049,34.6553,11.6661,47.9802,3.0029,16.2578,4.4677,29.0351,6.1199,43.4466,1.7317,15.1046,3.5253,30.7496,4.3987,51.7582.5184,12.4691.8063,29.0817,0,48.7358"/>
    <path class="cls-5" d="M248.1052,18.12c11.3193,11.4026,17.9107,24.0465,22.538,32.7571,5.7424,10.8096,8.6797,17.5685,12.0527,26.6512,3.5353,9.5194,6.0669,19.2949,8.5062,32.4383,1.4425,7.7726,2.6037,16.5043,2.1942,29.1083"/>
    <path class="cls-5" d="M293.3963,139.0748c.7983,8.6398.325,14.2619-.2133,18.7995-.6148,5.1822-1.6728,10.7719-3.6834,18.8596-1.8531,7.4541-4.7002,12.8369-7.0597,17.0202-3.9154,6.9418-6.9688,11.7829-11.1637,16.2866"/>
  </g>
  <g id="_图层_3" data-name="图层_3">
    <text class="cls-11" transform="translate(0 137.5909)"><tspan x="0" y="0">O</tspan></text>
    <text class="cls-11" transform="translate(195.4832 36.0733)"><tspan x="0" y="0">B</tspan><tspan class="cls-14" x="12.0059" y="0">’</tspan></text>
    <text class="cls-11" transform="translate(246.8245 135.0154)"><tspan class="cls-13" x="0" y="0">A</tspan><tspan class="cls-14" x="10.6699" y="0">’</tspan></text>
    <text class="cls-11" transform="translate(255.0467 223.3255)"><tspan x="0" y="0">C</tspan></text>
    <text class="cls-11" transform="translate(192.3371 205.6824)"><tspan x="0" y="0">H</tspan></text>
    <text class="cls-11" transform="translate(214.8602 130.7499)"><tspan x="0" y="0">D</tspan></text>
    <text class="cls-11" transform="translate(237.3331 15.4466)"><tspan x="0" y="0">B</tspan></text>
    <text class="cls-12" transform="translate(279.7116 135.0154)"><tspan x="0" y="0">A</tspan></text>
  </g>
  <g id="_图层_4" data-name="图层_4">
    <g>
      <line class="cls-5" x1="209.6732" y1="182.1286" x2="208.2158" y2="181.7736"/>
      <line class="cls-2" x1="206.6754" y1="181.3984" x2="204.3648" y2="180.8356"/>
      <polyline class="cls-5" points="203.5946 180.6479 202.1372 180.293 201.0284 181.3032"/>
      <line class="cls-9" x1="199.3903" y1="182.7955" x2="196.9331" y2="185.0341"/>
      <line class="cls-5" x1="196.1141" y1="185.7803" x2="195.0053" y2="186.7905"/>
    </g>
    <polyline class="cls-5" points="195.0053 186.7905 194.6012 177.7808 203.539 179.5198 208.5136 173.7954 209.6732 182.1286"/>
  </g>
  <g id="_图层_5" data-name="图层_5">
    <line class="cls-3" x1="214.8601" y1="136.8724" x2="203.539" y2="189.4866"/>
    <line class="cls-3" x1="203.539" y1="40.1521" x2="214.8601" y2="136.8724"/>
  </g>
  <g id="_图层_6" data-name="图层_6">
    <polyline class="cls-4" points="214.1456 130.7497 207.8614 130.3288 207.8614 136.4285 205.8991 142.4191 213.4638 143.3619"/>
  </g>
</svg>