<?xml version="1.0" encoding="UTF-8"?>
<svg id="_图层_1" data-name="图层_1" xmlns="http://www.w3.org/2000/svg" viewBox="0 0 222.2495 241.3036">
  <defs>
    <style>
      .cls-1 {
        stroke-dasharray: 5.8649 5.8649;
      }

      .cls-1, .cls-2, .cls-3, .cls-4, .cls-5, .cls-6, .cls-7, .cls-8, .cls-9 {
        stroke: #231815;
        stroke-miterlimit: 10;
      }

      .cls-1, .cls-2, .cls-3, .cls-4, .cls-5, .cls-6, .cls-7, .cls-9 {
        fill: none;
      }

      .cls-2 {
        stroke-dasharray: 6.09 6.09;
      }

      .cls-3 {
        stroke-dasharray: 6.1208 6.1208;
      }

      .cls-4 {
        stroke-dasharray: 6.1067 6.1067;
      }

      .cls-5 {
        stroke-dasharray: 6.1026 6.1026;
      }

      .cls-10, .cls-11 {
        font-family: ArialMT, Arial;
        font-size: 18px;
      }

      .cls-7 {
        stroke-dasharray: 6;
      }

      .cls-11 {
        letter-spacing: -.0552em;
      }

      .cls-12, .cls-8 {
        fill: #fff;
      }

      .cls-9 {
        stroke-dasharray: 6.1562 6.1562;
      }
    </style>
  </defs>
  <circle class="cls-8" cx="111.0424" cy="130.2613" r="110.5424"/>
  <g>
    <polygon class="cls-12" points="111.0424 24.917 16.1027 183.1498 172.8042 210.2025 111.0424 24.917"/>
    <g>
      <polyline class="cls-6" points="111.9911 27.7631 111.0424 24.917 109.4989 27.4895"/>
      <line class="cls-9" x1="106.3315" y1="32.7684" x2="19.2299" y2="177.9379"/>
      <polyline class="cls-6" points="17.6462 180.5773 16.1027 183.1498 19.059 183.6602"/>
      <line class="cls-3" x1="25.0905" y1="184.7014" x2="166.8321" y2="209.1715"/>
      <polyline class="cls-6" points="169.8479 209.6921 172.8042 210.2025 171.8555 207.3564"/>
      <line class="cls-4" x1="169.9244" y1="201.5631" x2="112.9566" y2="30.6597"/>
    </g>
  </g>
  <g>
    <line class="cls-12" x1="209.2502" y1="133.0437" x2="111.0424" y2="24.917"/>
    <g>
      <line class="cls-6" x1="209.2502" y1="133.0437" x2="207.2332" y2="130.823"/>
      <line class="cls-2" x1="203.1387" y1="126.3149" x2="115.1067" y2="29.3918"/>
      <line class="cls-6" x1="113.0594" y1="27.1378" x2="111.0424" y2="24.917"/>
    </g>
  </g>
  <g>
    <line class="cls-12" x1="209.2502" y1="133.0437" x2="172.8042" y2="210.2025"/>
    <g>
      <line class="cls-6" x1="209.2502" y1="133.0437" x2="207.9689" y2="135.7563"/>
      <line class="cls-5" x1="205.3625" y1="141.2743" x2="175.3887" y2="204.7309"/>
      <line class="cls-6" x1="174.0855" y1="207.4899" x2="172.8042" y2="210.2025"/>
    </g>
  </g>
  <g>
    <line class="cls-12" x1="209.2502" y1="133.0437" x2="16.1027" y2="183.1498"/>
    <g>
      <line class="cls-6" x1="209.2502" y1="133.0437" x2="206.3463" y2="133.7971"/>
      <line class="cls-1" x1="200.6694" y1="135.2698" x2="21.8451" y2="181.6601"/>
      <line class="cls-6" x1="19.0066" y1="182.3965" x2="16.1027" y2="183.1498"/>
    </g>
  </g>
  <path class="cls-6" d="M16.4866,183.1498c-.94-13.4697-2.2155-55.345,23.7346-97.3432,24.4425-39.5582,58.537-55.7549,70.8211-60.8896"/>
  <path class="cls-6" d="M111.0424,24.917c13.1135,21.1095,28.3589,49.947,40.6844,86.2536,13.0271,38.3734,18.6271,72.821,21.0774,99.0319"/>
  <path class="cls-6" d="M16.1027,183.1498c18.0843,8.4209,42.7772,17.7643,73.0955,23.3873,33.5488,6.2221,62.5164,5.7615,83.606,3.8184"/>
  <path class="cls-6" d="M209.2502,133.0437c-1.2126,10.1316-4.1379,24.7778-11.7148,40.9806-7.7965,16.6724-17.5422,28.629-24.7312,36.1782"/>
  <path class="cls-7" d="M150.6842,27.514c12.6664,5.0463,24.9555,13.8833,35.2181,25.8732,19.6841,22.9971,28.7836,53.9371,23.4305,79.5812"/>
  <path class="cls-6" d="M110.8646,25.079c12.3681-4.0175,26.3085-2.9479,39.8196,2.435"/>
  <text class="cls-11" transform="translate(100.9531 15.4468)"><tspan x="0" y="0">A</tspan></text>
  <text class="cls-10" transform="translate(166.4608 225.3359)"><tspan x="0" y="0">C</tspan></text>
  <text class="cls-10" transform="translate(.4999 194.2417)"><tspan x="0" y="0">B</tspan></text>
  <text class="cls-10" transform="translate(209.2501 143.3483)"><tspan x="0" y="0">D</tspan></text>
</svg>