<svg xmlns="http://www.w3.org/2000/svg" viewBox="0 0 226.19092 213.77979"><defs><style>.cls-1,.cls-2,.cls-3,.cls-4,.cls-5{fill:none;stroke:#000;stroke-miterlimit:10;}.cls-2{stroke-dasharray:11.5458 11.5458;}.cls-3{stroke-dasharray:11.69033 11.69033;}.cls-4{stroke-dasharray:12.7634 12.7634;}.cls-5{stroke-dasharray:8.86753 8.86753;}.cls-6{font-size:12px;font-family:AdobeSongStd-Light-GBpc-EUC-H, Adobe Song Std;}</style></defs><g id="图层_2" data-name="图层 2"><g id="图层_1-2" data-name="图层 1"><line class="cls-1" x1="165.16646" y1="14.85493" x2="12.76904" y2="132.06787"/><path class="cls-1" d="M140.769,199.06787a156.20688,156.20688,0,0,1-15-49c-3.429-25.92282.62842-45.85229,3-57a196.72863,196.72863,0,0,1,36.54578-78.40011"/><path class="cls-1" d="M12.769,132.06787l128,67"/><line class="cls-1" x1="12.76904" y1="132.06787" x2="18.64578" y2="130.85794"/><line class="cls-2" x1="29.95441" y1="128.52969" x2="205.23798" y2="92.44193"/><line class="cls-1" x1="210.89227" y1="91.2778" x2="216.76904" y2="90.06787"/><line class="cls-1" x1="165.16644" y1="14.85492" x2="165.16644" y2="20.85492"/><line class="cls-3" x1="165.16644" y1="32.54526" x2="165.16644" y2="120.22272"/><polyline class="cls-1" points="165.166 126.068 165.166 132.068 159.166 132.068"/><line class="cls-4" x1="146.40302" y1="132.06787" x2="25.15076" y2="132.06787"/><line class="cls-1" x1="18.76904" y1="132.06787" x2="12.76904" y2="132.06787"/><path class="cls-1" d="M216.769,90.06787c-1-7-1-14-9-33-9.49331-22.54662-36.80511-39.14508-43-42"/><path class="cls-1" d="M140.80006,198.762c6.18485-1.25963,31.59213-11.99664,52.969-47.69418,16.83315-28.10995,22-53,23-61"/><path class="cls-1" d="M203.769,132.06787a146.83463,146.83463,0,0,0-4-42c-8-33-23.92724-58.67743-34-74"/><line class="cls-1" x1="165.16644" y1="132.06787" x2="171.16644" y2="132.06787"/><line class="cls-5" x1="180.034" y1="132.06787" x2="193.33527" y2="132.06787"/><line class="cls-1" x1="197.76904" y1="132.06787" x2="203.76904" y2="132.06787"/><text class="cls-6" transform="translate(0 136.63232)">O</text><text class="cls-6" transform="translate(161.38086 10.56006)">C</text><text class="cls-6" transform="translate(136.83838 210.73193)">B</text><text class="cls-6" transform="translate(217.98291 95.28711)">A</text><text class="cls-6" transform="translate(206.1377 138.74268)">G</text><text class="cls-6" transform="translate(159.81445 142.64697)">H</text><text class="cls-6" transform="translate(81.78174 62.37891)">c</text><text class="cls-6" transform="translate(63.38965 171.19971)">b</text><text class="cls-6" transform="translate(116.26758 101.4624)">a</text><text class="cls-6" transform="translate(170.29443 77.70557)">h</text><text class="cls-6" transform="translate(129.67822 117.17236)">α</text><text class="cls-6" transform="translate(202.8457 51.00537)">β</text><text class="cls-6" transform="translate(197.5 159.70459)">γ</text><text class="cls-6" transform="translate(195.18213 76.19189)">ξ</text><path class="cls-1" d="M135.269,187.56787a13.4523,13.4523,0,0,1,10.55556-2,12.71236,12.71236,0,0,1,8.44444,7"/><text class="cls-6" transform="translate(140.69092 181.24658)">θ</text><polyline class="cls-1" points="156.355 132.068 156.355 123.495 165.166 123.495"/></g></g></svg>