<svg xmlns="http://www.w3.org/2000/svg" viewBox="0 0 856.51098 376.30028"><defs><style>.cls-1,.cls-3,.cls-4{fill:none;stroke-miterlimit:10;}.cls-1{stroke:#000;}.cls-2{font-size:24px;font-family:AdobeSongStd-Light-GBpc-EUC-H, Adobe Song Std;}.cls-3{stroke:#39c;}.cls-4{stroke:red;}</style></defs><g id="图层_2" data-name="图层 2"><g id="图层_1-2" data-name="图层 1"><path class="cls-1" d="M41.74636,188.04562c42.66253-7.19223,65.64511,2.50275,78.66658,12.35192,17.28039,13.07053,29.3797,44.09952,52.873,105.62406,12.88443,33.74191,16.78972,47.3368,32.28471,57.98877,17.09342,11.7508,43.34283,16.51848,61.8531,5.84752,16.21611-9.34835,18.06714-25.68847,29.8965-63.13635C316.14609,247.12517,325.559,217.327,346.551,199.1421c27.96564-24.226,65.19457-24.83682,91.79468-25.27325,31.23756-.51249,63.00638-1.03371,85.45467,19.55759,13.77458,12.63511,12.1284,22.2935,39.69985,111.23364,10.31809,33.28418,15.14952,46.77316,29.3457,55.90018,16.914,10.87445,41.21741,11.76083,58.97375,1.75982,8.05821-4.5387,17.78341-13.01809,31.53768-51.082,22.22787-61.51409,13.493-85.48595,34.17774-106.02774,8.86794-8.80668,25.21513-19.04043,57.601-19.2905"/><text class="cls-2" transform="translate(731.80305 309.02982)">V(x)</text><path class="cls-3" d="M19.77277,114.44291a199.23321,199.23321,0,0,1,56,0c15.86609,2.26614,32.80982,4.68622,51,15,14.0752,7.98059,14.08533,12.28943,42,37,23.145,20.48837,34.92313,30.73791,45,31,13.69461.3562,25.46308-10.4292,49-32,21.954-20.12015,23.67508-27.06519,38-36,3.64417-2.273,14.69751-8.23163,49-14,26.447-4.44739,46.559-5.32288,62-6,24.15613-1.0593,52.52649-2.32288,90-4"/><path class="cls-3" d="M834.05555,114.5a199.23321,199.23321,0,0,0-56,0c-15.86609,2.26614-32.80982,4.68622-51,15-14.0752,7.98059-14.08533,12.28943-42,37-23.145,20.48837-34.92313,30.73792-45,31-13.69462.3562-25.46308-10.4292-49-32-21.95405-20.12015-23.67508-27.06519-38-36-3.64417-2.27295-14.69751-8.23163-49-14-26.447-4.44739-46.559-5.32288-62-6-24.15613-1.0593-52.52649-2.32288-90-4"/><path class="cls-4" d="M834.00817,83.50854a199.2332,199.2332,0,0,1-56,0c-15.86609-2.26614-32.80981-4.68622-51-15-14.0752-7.98059-14.08533-12.28943-42-37-23.145-20.48837-34.92313-30.73791-45-31-13.69461-.3562-25.46307,10.4292-49,32-21.954,20.12015-23.67508,27.06519-38,36-3.64416,2.273-14.69751,8.23163-49,14-26.447,4.44739-46.559,5.32288-62,6-24.15613,1.0593-52.52649,2.32288-90,4"/><text class="cls-2" transform="translate(202.40217 133.49369)">|down,1&gt;</text><text class="cls-2" transform="translate(603.66828 134.564)">|down,2&gt;</text><text class="cls-2" transform="translate(613.03254 67.55961)">|up,2&gt;</text><line class="cls-1" x1="0.00003" y1="99.44291" x2="856.51095" y2="99.5"/></g></g></svg>